<?xml version="1.0" standalone="no"?>
<!DOCTYPE svg PUBLIC "-//W3C//DTD SVG 20010904//EN"
 "http://www.w3.org/TR/2001/REC-SVG-20010904/DTD/svg10.dtd">
<svg version="1.0" xmlns="http://www.w3.org/2000/svg"
 width="512.000000pt" height="512.000000pt" viewBox="0 0 512.000000 512.000000"
 preserveAspectRatio="xMidYMid meet">

<g transform="translate(0.000000,512.000000) scale(0.100000,-0.100000)"
fill="#000000" stroke="none">
<path d="M815 4597 c-114 -29 -208 -104 -261 -209 -33 -63 -45 -190 -24 -254
7 -22 138 -335 292 -696 248 -586 318 -768 318 -830 0 -17 13 -18 229 -18
l228 0 66 53 c36 28 66 54 66 57 1 3 -40 30 -91 60 -153 91 -172 117 -128 173
25 32 206 121 279 137 29 7 85 10 125 8 83 -6 131 -27 281 -128 l100 -67 280
-22 c384 -30 440 -42 600 -124 83 -43 205 -148 231 -198 20 -40 17 -96 -7
-135 -34 -56 -146 -150 -228 -193 -139 -72 -219 -89 -564 -117 l-309 -25 -131
-85 c-72 -46 -153 -91 -181 -99 -102 -31 -213 -13 -352 55 -132 65 -172 117
-125 166 10 10 64 46 119 79 56 33 100 63 99 66 -1 3 -30 29 -64 58 l-62 51
-230 0 -231 0 -6 -27 c-21 -102 -74 -226 -310 -740 -145 -317 -270 -596 -276
-620 -16 -66 -5 -170 25 -236 72 -158 266 -255 428 -215 51 13 1874 887 3353
1609 114 56 176 112 218 197 30 61 33 74 33 162 0 88 -3 101 -33 163 -61 124
210 -27 -2552 1418 -531 278 -980 511 -998 517 -54 18 -152 23 -207 9z"/>
</g>
</svg>
